<svg width="34" height="34" viewBox="0 0 34 34" fill="none" xmlns="http://www.w3.org/2000/svg">
<path fill-rule="evenodd" clip-rule="evenodd" d="M13.004 22.2278C12.684 22.2278 12.364 22.1062 12.1206 21.8612C11.6323 21.3728 11.6323 20.5828 12.1206 20.0945L20.1073 12.1078C20.5956 11.6195 21.3856 11.6195 21.874 12.1078C22.3623 12.5962 22.3623 13.3862 21.874 13.8745L13.8873 21.8612C13.644 22.1062 13.324 22.2278 13.004 22.2278" fill="#61646B"/>
<path fill-rule="evenodd" clip-rule="evenodd" d="M20.9941 22.2326C20.6741 22.2326 20.3541 22.111 20.1108 21.866L12.1175 13.871C11.6291 13.3826 11.6291 12.5926 12.1175 12.1043C12.6075 11.616 13.3975 11.616 13.8841 12.1043L21.8775 20.0993C22.3658 20.5876 22.3658 21.3776 21.8775 21.866C21.6341 22.111 21.3125 22.2326 20.9941 22.2326" fill="#61646B"/>
<path fill-rule="evenodd" clip-rule="evenodd" d="M9.77492 2.83331C5.55825 2.83331 2.83325 5.72165 2.83325 10.1933V23.8066C2.83325 28.2783 5.55825 31.1666 9.77492 31.1666H24.2216C28.4399 31.1666 31.1666 28.2783 31.1666 23.8066V10.1933C31.1666 5.72165 28.4399 2.83331 24.2233 2.83331H9.77492ZM24.2216 33.6666H9.77492C4.12659 33.6666 0.333252 29.7033 0.333252 23.8066V10.1933C0.333252 4.29665 4.12659 0.333313 9.77492 0.333313H24.2233C29.8716 0.333313 33.6666 4.29665 33.6666 10.1933V23.8066C33.6666 29.7033 29.8716 33.6666 24.2216 33.6666V33.6666Z" fill="#61646B"/>
</svg>
